<svg xmlns="http://www.w3.org/2000/svg" viewBox="0 0 160 160">
<defs><linearGradient id="bg" x1="0" y1="0" x2="0" y2="1">
<stop offset="0" stop-color="#2c1830"/><stop offset="1" stop-color="#0f0a12"/>
</linearGradient></defs>
<rect width="160" height="160" fill="url(#bg)"/>
<path d="M46,66 C46,30 114,30 114,66 L120,160 L102,160 L104,90 L56,90 L58,160 L40,160 Z" fill="#1a1216"/>
<path d="M16,160 C20,130 52,120 80,120 C108,120 140,130 144,160 Z" fill="#2a1a33"/>
<path d="M64,122 L80,140 L96,122 L96,130 L80,148 L64,130 Z" fill="none" stroke="#d8b45c" stroke-width="1.6"/>
<circle cx="60" cy="52" r="5" fill="#8a4ab0"/>
<circle cx="68" cy="48" r="5" fill="#9a5ac0"/>
<circle cx="64" cy="59" r="5" fill="#7a3a9a"/>
<circle cx="64" cy="53" r="2" fill="#e8c860"/>
<rect x="73" y="96" width="14" height="26" fill="#eac09e"/>
<ellipse cx="80" cy="78" rx="26" ry="30" fill="#f7d9c4"/>
<ellipse cx="54" cy="80" rx="4" ry="6" fill="#f7d9c4"/>
<ellipse cx="106" cy="80" rx="4" ry="6" fill="#f7d9c4"/>
<ellipse cx="80" cy="54" rx="28" ry="17" fill="#1a1214"/>
<polygon points="52,62 58,50 62,64 66,50 70,64 74,50 78,64 82,50 86,64 90,50 94,64 98,50 102,64 106,50 108,62 104,74 100,62 96,74 92,62 88,74 84,62 80,74 76,62 72,74 68,62 64,74 60,62 56,73" fill="#1a1214"/>
<path d="M54,60 L48,112 L58,112 L60,66 Z" fill="#1a1214"/>
<path d="M106,60 L112,112 L102,112 L100,66 Z" fill="#1a1214"/>
<path d="M62,70 Q68,68 74,70" stroke="#1a1214" stroke-width="2" fill="none"/>
<path d="M86,70 Q92,68 98,70" stroke="#1a1214" stroke-width="2" fill="none"/>
<ellipse cx="68" cy="81" rx="5.5" ry="7" fill="#fff"/>
<ellipse cx="92" cy="81" rx="5.5" ry="7" fill="#fff"/>
<circle cx="68" cy="82" r="3.4" fill="#a02040"/>
<circle cx="92" cy="82" r="3.4" fill="#a02040"/>
<circle cx="68" cy="82" r="1.5" fill="#111"/>
<circle cx="92" cy="82" r="1.5" fill="#111"/>
<circle cx="69.5" cy="79.5" r="1.3" fill="#fff"/>
<circle cx="93.5" cy="79.5" r="1.3" fill="#fff"/>
<path d="M62,88 L74,88" stroke="#c08088" stroke-width="1" opacity="0.6"/>
<path d="M86,88 L98,88" stroke="#c08088" stroke-width="1" opacity="0.6"/>
<ellipse cx="63" cy="90" rx="3.5" ry="2.2" fill="#f0a0a0" opacity="0.45"/>
<ellipse cx="97" cy="90" rx="3.5" ry="2.2" fill="#f0a0a0" opacity="0.45"/>
<path d="M73,96 Q80,100 87,96" stroke="#8a4a3a" stroke-width="2" fill="none" stroke-linecap="round"/>
</svg>
